# xmcd CD database file
#
# Track frame offsets:
#	150
#	20857
#	34725
#	53175
#	63215
#	77502
#	90765
#	119997
#	141757
#	156187
#	183182
#	197657
#	226285
#	238847
#
# Disc length: 3485 seconds
#
# Revision: 0
# Processed by: cddbd v1.5.1PL2 Copyright (c) Steve Scherf et al.
# Submitted via: CDex 1.51
#
DISCID=b60d9b0e
DTITLE=Various Artist - The Best Jazz Vocals(Woman more) Disc2
DYEAR=2002
DGENRE=Jazz
TTITLE0=All Or Nothing At All_Diana Krall
TTITLE1=Me Oh My_Silje Nergaard
TTITLE2=Fascinating Rhythm_Dee Dee Bridgewater
TTITLE3=On A Slow Boat to China_Ruth Cameron
TTITLE4=I'm Old Fashioned_Cassandra Wilson
TTITLE5=Easy To Love_Diane Schuur
TTITLE6=Bewitched_Claudia Acuna
TTITLE7=I Didn't Know What Time It Was_Cassandra Willson
TTITLE8=Hit The Road<Jack_Shirley Horn
TTITLE9=When I Fall In Love_akiko
TTITLE10=Do Nothing Till You Hear From Me_Silje Nergaard
TTITLE11=The World Is Falling Down_Abbey Lincoln
TTITLE12=Let There Be Love_Laura Fygi
TTITLE13=What's New_Helen Merrill
EXTD=YEAR: 2002
EXTT0=
EXTT1=
EXTT2=
EXTT3=
EXTT4=
EXTT5=
EXTT6=
EXTT7=
EXTT8=
EXTT9=
EXTT10=
EXTT11=
EXTT12=
EXTT13=
PLAYORDER=
